<svg width="1680" height="2460" viewBox="0 0 1680 2460" fill="none" xmlns="http://www.w3.org/2000/svg">
<path d="M711.603 608.454V295.287C711.603 133.913 842.127 2.76964 1003.74 2.34385L1652.95 0.00231926C1815.2 -0.636365 1947 130.719 1947 292.944V1553.92C1947 1714.87 1817.12 1845.8 1655.93 1846.86L1622.29 1847.08C1459.61 1848.35 1327.17 1716.78 1327.17 1554.13V1520.28C1327.17 1358.48 1196.01 1227.34 1034.19 1227.34H1005.02C843.191 1227.34 712.028 1358.48 712.028 1520.28V2167.06C712.028 2328.86 580.866 2460 419.042 2460H-221.014C-382.838 2460 -514 2328.86 -514 2167.06V1522.62C-514 1360.82 -382.838 1229.68 -221.014 1229.68H91.1357C433.521 1229.26 711.603 951.215 711.603 608.454Z" fill="#F9EBFF"/>
</svg>
